<svg id="Ebene_1" xmlns="http://www.w3.org/2000/svg" viewBox="0 0 351.7 328.4"><style>.st0{fill:#B2B2B2;} .st1{fill:#E1232B;} .st2{fill:none;}</style><path d="M120.7 236.7V174h-14.9v26.4H77.7V174H62.8v62.7h14.9v-24.8h28.1v24.8zM288.8 174h-53.4v11.9h19.2v50.8h14.9v-50.8h19.3z"/><path class="st0" d="M137.3 177.1c-5.1 2.8-9.2 6.7-12.2 11.5-2.9 4.9-4.4 10.4-4.4 16.5s1.5 11.7 4.4 16.7c2.9 5 7 8.9 12.2 11.7 5.1 2.8 11 4.3 17.4 4.3 6.4 0 12.2-1.4 17.4-4.3 5.1-2.9 9.2-6.8 12.2-11.7 2.9-4.9 4.4-10.5 4.4-16.7 0-6.1-1.5-11.6-4.4-16.5-2.9-4.9-7-8.8-12.2-11.5-5.2-2.8-11-4.2-17.4-4.2-6.4 0-12.2 1.5-17.4 4.2zm26.9 10.8c2.8 1.7 5.1 4.2 6.7 7.3 1.6 3.1 2.4 6.5 2.4 10.1 0 3.7-.8 7.2-2.4 10.2-1.6 3.1-3.9 5.5-6.7 7.3-2.8 1.8-6 2.7-9.4 2.7-3.4 0-6.5-.9-9.4-2.7-2.8-1.8-5.1-4.2-6.9-7.3-1.7-3.1-2.6-6.5-2.6-10.2 0-3.7.8-7.1 2.5-10.1 1.7-3.1 4-5.5 6.9-7.3 2.9-1.7 6.1-2.6 9.4-2.6 3.6-.1 6.7.8 9.5 2.6z"/><path d="M233.8 208.6c-2-2.5-4.4-4.4-7.1-5.7-2.9-1.3-6.6-2.6-11-3.8-3.1-.9-5.4-1.7-6.9-2.3-1.7-.6-3.1-1.5-4.2-2.5-1.3-1.1-1.9-2.6-1.9-4.3 0-1.8.8-3.3 2.3-4.2 3-1.9 8.3-1.7 15.6.7 3.6 1.2 7.1 2.7 10.3 4.5l5.5-11.7c-3.2-1.9-6.9-3.5-11-4.7-4.4-1.3-9-1.9-13.6-1.9-5 0-9.5.8-13.2 2.4-3.7 1.5-6.6 3.8-8.6 6.6s-3 6.2-3 9.9c0 1.6.2 3.1.5 4.5.1.3.2.7.3 1 .5 1.6 1.2 2.9 2.1 4.1 2 2.4 4.3 4.2 7.1 5.4 2.8 1.2 6.5 2.5 10.9 3.7 3 .8 5.3 1.5 6.9 2.1 1.7.6 3.2 1.5 4.4 2.6 1.3 1.2 1.9 2.7 1.9 4.4 0 2.1-.9 3.8-2.6 4.9-1.6 1-3.8 1.5-6.5 1.5-3.6 0-7.7-1-12.2-2.8-3.3-1.4-8.6-4.7-12.5-7.5-.7 2.2-1.7 4.4-2.9 6.4-1 1.6-2.1 3.1-3.3 4.5 4.4 3.2 11 7.1 15.1 8.6 5.2 1.8 10.5 2.8 15.7 2.8 4.7 0 9-.8 12.9-2.2 3.8-1.5 6.8-3.7 8.9-6.5 2.1-2.9 3.2-6.4 3.2-10.4-.1-4.3-1.1-7.6-3.1-10.1z"/><g><path class="st1" d="M200.7 62.8c21.8 24.7 26.7 55.4 16.9 86.5 19.5-5.4 35.9-13.4 50.3-27.6.4-12.5-1.7-24.2-8.4-34.4-15.4-10.1-35.2-18.2-58.8-24.5"/><path class="st1" d="M144.2 62.8c21.8 24.7 26.7 55.4 16.9 86.5 19.5-5.4 35.9-13.4 50.3-27.6.4-12.5-1.7-24.2-8.4-34.4-15.5-10.1-35.3-18.2-58.8-24.5"/><path class="st1" d="M88.9 62.8c21.8 24.7 26.7 55.4 16.9 86.5 19.5-5.4 35.9-13.4 50.3-27.6.4-12.5-1.7-24.2-8.4-34.4-15.5-10.1-35.3-18.2-58.8-24.5"/></g><g><path d="M62.8 250.8h2v6.6h8.4v-6.6h2v14.7h-2v-6.3h-8.4v6.3h-2v-14.7zM87.1 255c.9.5 1.5 1.1 2 2 .5.8.7 1.8.7 2.9 0 1.1-.2 2.1-.7 2.9-.5.9-1.2 1.5-2 2-.9.5-1.8.7-3 .7-1.1 0-2.1-.2-3-.7-.9-.5-1.5-1.1-2-2-.5-.8-.7-1.8-.7-2.9 0-1.1.2-2.1.7-2.9.5-.8 1.2-1.5 2-2 .9-.5 1.9-.7 3-.7s2.1.2 3 .7zm-4.9 1.5c-.6.3-1 .8-1.3 1.4-.3.6-.5 1.3-.5 2 0 .8.2 1.5.5 2.1.3.6.8 1.1 1.3 1.4.6.3 1.2.5 1.9.5s1.4-.2 1.9-.5c.6-.3 1-.8 1.3-1.4.3-.6.5-1.3.5-2.1s-.2-1.4-.5-2c-.3-.6-.8-1.1-1.3-1.4-.6-.3-1.2-.5-1.9-.5s-1.4.2-1.9.5zM97.6 256c-.7 0-1.4.2-1.9.5-.6.3-1 .8-1.3 1.4s-.5 1.3-.5 2c0 .8.2 1.4.5 2 .3.6.7 1 1.3 1.4.6.3 1.2.5 1.9.5s1.4-.1 1.9-.4c.6-.2 1-.6 1.4-1l1.1 1.1c-.5.6-1.1 1.1-1.9 1.4-.8.3-1.7.5-2.6.5-1.1 0-2-.2-2.9-.7-.8-.5-1.5-1.1-2-2-.5-.8-.7-1.8-.7-2.9s.2-2.1.7-2.9 1.1-1.5 2-2c.8-.5 1.8-.7 2.9-.7.9 0 1.8.1 2.5.4s1.4.7 1.9 1.2l-1.1 1.3c-1-.6-2-1.1-3.2-1.1zM113.9 255.4c.7.8 1.1 1.8 1.1 3.2v6.9h-2v-6.3c0-.9-.3-1.7-.8-2.2-.5-.5-1.2-.8-2.2-.8-1.1 0-1.9.4-2.6 1.1-.6.7-.9 1.6-.9 2.8v5.5h-2V250h2v6.9c.7-1.6 2.2-2.4 4.2-2.5 1.5-.1 2.5.3 3.2 1zM123.4 256.1c-.6-.2-1.1-.3-1.6-.3-.6 0-1.1.1-1.4.3-.4.2-.5.5-.5 1s.2.8.6 1c.4.2 1 .5 1.8.7.8.2 1.4.4 1.9.7.5.2.9.6 1.3 1 .3.4.5 1 .5 1.7 0 1.1-.4 1.8-1.2 2.4-.8.5-1.8.8-3 .8-.8 0-1.6-.1-2.4-.4-.8-.3-1.4-.6-2-1.1l.7-1.4c.5.4 1 .8 1.7 1 .7.3 1.3.4 2 .4.6 0 1.2-.1 1.6-.4.4-.2.6-.6.6-1.1 0-.5-.2-.9-.6-1.1s-1-.5-1.9-.8c-.7-.2-1.3-.4-1.8-.6s-.9-.5-1.2-1c-.3-.4-.5-1-.5-1.6 0-1 .4-1.8 1.1-2.3.8-.5 1.7-.8 2.8-.8.7 0 1.3.1 2 .3.7.2 1.2.4 1.7.8l-.7 1.5c-.5-.3-1-.5-1.5-.7zM133.5 256c-.7 0-1.4.2-1.9.5-.6.3-1 .8-1.3 1.4s-.5 1.3-.5 2c0 .8.2 1.4.5 2 .3.6.7 1 1.3 1.4.6.3 1.2.5 1.9.5s1.4-.1 1.9-.4c.6-.2 1-.6 1.4-1l1.1 1.1c-.5.6-1.1 1.1-1.9 1.4-.8.3-1.7.5-2.6.5-1.1 0-2-.2-2.9-.7-.8-.5-1.5-1.1-2-2-.5-.8-.7-1.8-.7-2.9s.2-2.1.7-2.9 1.1-1.5 2-2c.8-.5 1.8-.7 2.9-.7.9 0 1.8.1 2.5.4s1.4.7 1.9 1.2l-1.1 1.3c-.9-.6-2-1.1-3.2-1.1zM149.9 255.4c.7.8 1.1 1.8 1.1 3.2v6.9h-2v-6.3c0-.9-.3-1.7-.8-2.2-.5-.5-1.2-.8-2.2-.8-1.1 0-1.9.4-2.6 1.1-.6.7-.9 1.6-.9 2.8v5.5h-2V250h2v6.9c.7-1.6 2.2-2.4 4.2-2.5 1.4-.1 2.4.3 3.2 1zM164.4 254.4v11.1h-2v-2.4c-.7 1.6-2.1 2.4-4.1 2.4-1.3 0-2.3-.4-3-1.1-.7-.8-1.1-1.8-1.1-3.2v-6.9h2v6.3c0 .9.3 1.7.8 2.2.5.5 1.2.8 2.1.8 1 0 1.9-.4 2.5-1.1.6-.7.9-1.6.9-2.8v-5.5h1.9zM168.2 249.9h2v15.6h-2v-15.6zM182.6 255.8c.9 1 1.3 2.4 1.3 4.2v.6h-8.8c.2 1 .6 1.8 1.3 2.4.7.6 1.5.9 2.5.9.7 0 1.3-.1 1.8-.4.6-.2 1.1-.6 1.5-1l1.1 1.1c-.5.6-1.2 1-2 1.4s-1.6.5-2.6.5c-1.1 0-2.1-.2-2.9-.7-.8-.5-1.5-1.1-2-2-.5-.9-.7-1.8-.7-2.9s.2-2.1.7-2.9c.5-.8 1.1-1.5 2-2 .8-.5 1.8-.7 2.9-.7 1.7 0 3 .5 3.9 1.5zm-.5 3.4c-.1-1-.4-1.8-1-2.4-.6-.6-1.4-.9-2.4-.9s-1.8.3-2.4.9-1 1.4-1.2 2.4h7zM199.6 252.9c-.7-.2-1.4-.3-2-.3-.9 0-1.5.2-2 .5s-.8.8-.8 1.4c0 .5.2.9.5 1.3s.7.6 1.1.8c.4.2 1.1.4 1.9.7 1 .3 1.8.6 2.4.9s1.1.7 1.6 1.3c.4.6.7 1.3.7 2.2 0 .8-.2 1.6-.7 2.2s-1.1 1.1-1.9 1.5c-.8.3-1.8.5-2.8.5-1.1 0-2.1-.2-3.2-.6-1-.4-1.9-1-2.6-1.7l.9-1.7c.7.7 1.5 1.2 2.4 1.6.9.4 1.7.6 2.6.6 1 0 1.8-.2 2.3-.6.6-.4.9-.9.9-1.6 0-.5-.2-.9-.5-1.3s-.7-.6-1.2-.8c-.5-.2-1.1-.4-1.9-.7-1-.3-1.8-.6-2.4-.9s-1.1-.7-1.6-1.2-.6-1.3-.6-2.2c0-.8.2-1.5.7-2.1.4-.6 1-1.1 1.8-1.4.8-.3 1.7-.5 2.7-.5.9 0 1.7.1 2.6.4.8.3 1.6.6 2.3 1l-.8 1.8c-.9-.6-1.6-.9-2.4-1.1zM211.7 264.7c-.9.5-1.7.8-2.6.8-.9 0-1.6-.3-2.1-.8s-.8-1.3-.8-2.4v-6.2h-1.6v-1.5h1.6v-3h2v3h3.4v1.5h-3.4v5.8c0 .6.1 1.1.3 1.3.2.3.6.4 1 .4.5 0 1.1-.2 1.7-.5l.5 1.6zM217.7 254.9c.7-.4 1.5-.6 2.4-.6v1.9c-1.1 0-2.1.3-2.8.9-.7.6-1.1 1.5-1.2 2.5v5.9h-2v-11.1h2v2.4c.4-.8.9-1.4 1.6-1.9zM229.3 265.5v-1.6c-.8 1.1-2.1 1.6-3.9 1.6-.8 0-1.4-.1-2-.4s-1-.7-1.3-1.2c-.3-.5-.5-1.1-.5-1.7 0-1 .4-1.8 1.1-2.4.7-.6 1.8-.9 3.1-.9h3.5v-.5c0-.8-.2-1.4-.7-1.8-.5-.4-1.2-.6-2.1-.6-1.1 0-2.3.4-3.4 1.2l-.8-1.3c.8-.5 1.5-.9 2.2-1.1.7-.2 1.5-.3 2.4-.3 1.4 0 2.5.3 3.2 1s1.1 1.6 1.2 2.8v7.3h-2zm-1.2-2.2c.6-.4 1-1 1.1-1.8v-1.1H226c-.9 0-1.5.1-2 .4-.4.3-.6.7-.6 1.3 0 .6.2 1 .7 1.4s1 .5 1.7.5c.9-.1 1.7-.3 2.3-.7zM234.8 249.9h2v15.6h-2v-15.6zM245.4 256.1c-.6-.2-1.1-.3-1.6-.3-.6 0-1.1.1-1.4.3-.4.2-.5.5-.5 1s.2.8.6 1c.4.2 1 .5 1.8.7.8.2 1.4.4 1.9.7.5.2.9.6 1.3 1 .3.4.5 1 .5 1.7 0 1.1-.4 1.8-1.2 2.4-.8.5-1.8.8-3 .8-.8 0-1.6-.1-2.4-.4-.8-.3-1.4-.6-2-1.1l.7-1.4c.5.4 1 .8 1.7 1 .7.3 1.3.4 2 .4.6 0 1.2-.1 1.6-.4.4-.2.6-.6.6-1.1 0-.5-.2-.9-.6-1.1s-1-.5-1.9-.8c-.7-.2-1.3-.4-1.8-.6s-.9-.5-1.2-1c-.3-.4-.5-1-.5-1.6 0-1 .4-1.8 1.1-2.3.8-.5 1.7-.8 2.8-.8.7 0 1.3.1 2 .3.7.2 1.2.4 1.7.8l-.7 1.5c-.5-.3-1-.5-1.5-.7zM260.6 254.4v11.1h-2v-2.4c-.7 1.6-2.1 2.4-4.1 2.4-1.3 0-2.3-.4-3-1.1-.7-.8-1.1-1.8-1.1-3.2v-6.9h2v6.3c0 .9.3 1.7.8 2.2.5.5 1.2.8 2.1.8 1 0 1.9-.4 2.5-1.1.6-.7.9-1.6.9-2.8v-5.5h1.9zM273.5 255.4c.7.8 1.1 1.8 1.1 3.2v6.9h-2v-6.3c0-.9-.3-1.7-.8-2.2-.5-.5-1.2-.8-2.2-.8-1 0-1.8.3-2.4 1-.6.6-1 1.4-1.1 2.4v5.9h-2v-11.1h2v2.4c.7-1.6 2.1-2.4 4.2-2.4 1.5-.1 2.5.3 3.2 1zM288.8 249.9v15.6h-2v-2.2c-.4.7-1 1.3-1.7 1.7-.7.4-1.5.6-2.5.6-1.1 0-2-.2-2.8-.7-.8-.5-1.4-1.2-1.9-2-.4-.9-.7-1.8-.7-3 0-1.1.2-2.1.7-2.9.4-.8 1.1-1.5 1.9-2 .8-.5 1.7-.7 2.8-.7 1 0 1.8.2 2.5.6.7.4 1.3 1 1.7 1.7v-6.7h2zm-3.8 13.5c.6-.3 1-.8 1.3-1.4.3-.6.5-1.3.5-2 0-.8-.2-1.5-.5-2.1-.3-.6-.8-1.1-1.3-1.4-.6-.3-1.2-.5-1.9-.5s-1.4.2-1.9.5c-.6.3-1 .8-1.3 1.4-.3.6-.5 1.3-.5 2 0 .8.2 1.4.5 2 .3.6.8 1.1 1.3 1.4.6.3 1.2.5 1.9.5s1.4-.1 1.9-.4z"/></g><path class="st2" d="M0 0h351.7v328.4H0z"/></svg>

